<?xml version="1.0" encoding="us-ascii" standalone="no"?><svg xmlns="http://www.w3.org/2000/svg" xmlns:xlink="http://www.w3.org/1999/xlink" contentStyleType="text/css" height="418px" preserveAspectRatio="none" style="width:594px;height:418px;background:#FFFFFF;" version="1.1" viewBox="0 0 594 418" width="594px" zoomAndPan="magnify"><defs/><g><!--class PaymentStrategy--><g id="elem_PaymentStrategy"><rect codeLine="3" fill="#F1F1F1" height="65.6094" id="PaymentStrategy" rx="2.5" ry="2.5" style="stroke:#181818;stroke-width:0.5;" width="171" x="211.5" y="211.5"/><ellipse cx="240.45" cy="227.5" fill="#B4A7E5" rx="11" ry="11" style="stroke:#181818;stroke-width:1.0;"/><path d="M241.4031,224.1406 L241.4031,230.7969 L243.1219,230.7969 Q243.7313,230.7969 243.9969,231.0313 Q244.2625,231.2656 244.2625,231.6563 Q244.2625,232.0313 243.9969,232.2656 Q243.7313,232.5 243.1219,232.5 L237.9813,232.5 Q237.3719,232.5 237.1063,232.2656 Q236.8406,232.0313 236.8406,231.6406 Q236.8406,231.2656 237.1063,231.0313 Q237.3719,230.7969 237.9813,230.7969 L239.7,230.7969 L239.7,224.1406 L237.9813,224.1406 Q237.3719,224.1406 237.1063,223.9063 Q236.8406,223.6719 236.8406,223.2813 Q236.8406,222.9063 237.1063,222.6719 Q237.3719,222.4375 237.9813,222.4375 L243.1219,222.4375 Q243.7313,222.4375 243.9969,222.6719 Q244.2625,222.9063 244.2625,223.2813 Q244.2625,223.6719 243.9969,223.9063 Q243.7313,224.1406 243.1219,224.1406 L241.4031,224.1406 Z " fill="#000000"/><text fill="#000000" font-family="sans-serif" font-size="14" font-style="italic" lengthAdjust="spacing" textLength="108" x="257.55" y="233.2285">PaymentStrategy</text><line style="stroke:#181818;stroke-width:0.5;" x1="212.5" x2="381.5" y1="243.5" y2="243.5"/><line style="stroke:#181818;stroke-width:0.5;" x1="212.5" x2="381.5" y1="251.5" y2="251.5"/><ellipse cx="222.5" cy="265.8047" fill="#84BE84" rx="3" ry="3" style="stroke:#038048;stroke-width:1.0;"/><text fill="#000000" font-family="sans-serif" font-size="14" font-style="italic" lengthAdjust="spacing" textLength="145" x="231.5" y="270.0332">pay(amount: int): None</text></g><!--class CreditCardPayment--><g id="elem_CreditCardPayment"><rect codeLine="7" fill="#F1F1F1" height="65.6094" id="CreditCardPayment" rx="2.5" ry="2.5" style="stroke:#181818;stroke-width:0.5;" width="170" x="7" y="346"/><ellipse cx="28.3" cy="362" fill="#ADD1B2" rx="11" ry="11" style="stroke:#181818;stroke-width:1.0;"/><path d="M31.0656,357.875 Q31.2219,357.6563 31.4094,357.5469 Q31.5969,357.4375 31.8156,357.4375 Q32.1906,357.4375 32.425,357.7031 Q32.6594,357.9531 32.6594,358.5625 L32.6594,360.0156 Q32.6594,360.625 32.425,360.8906 Q32.1906,361.1563 31.8156,361.1563 Q31.4719,361.1563 31.2688,360.9531 Q31.0656,360.7656 30.9563,360.25 Q30.9094,359.8906 30.7219,359.7031 Q30.3938,359.3281 29.7844,359.1094 Q29.175,358.8906 28.55,358.8906 Q27.7844,358.8906 27.1438,359.2188 Q26.5188,359.5469 26.0188,360.2969 Q25.5344,361.0469 25.5344,362.0781 L25.5344,363.1719 Q25.5344,364.4063 26.425,365.2344 Q27.3156,366.0469 28.9094,366.0469 Q29.8469,366.0469 30.5031,365.7969 Q30.8938,365.6406 31.3156,365.2031 Q31.5813,364.9375 31.7219,364.8594 Q31.8781,364.7813 32.0813,364.7813 Q32.4094,364.7813 32.6594,365.0469 Q32.925,365.2969 32.925,365.6406 Q32.925,365.9844 32.5813,366.3906 Q32.0813,366.9688 31.2844,367.2969 Q30.2063,367.75 28.9094,367.75 Q27.3938,367.75 26.1906,367.125 Q25.2063,366.625 24.5188,365.5625 Q23.8313,364.4844 23.8313,363.2031 L23.8313,362.0469 Q23.8313,360.7188 24.4406,359.5781 Q25.0656,358.4219 26.1594,357.8125 Q27.2531,357.1875 28.4875,357.1875 Q29.2219,357.1875 29.8625,357.3594 Q30.5188,357.5156 31.0656,357.875 Z " fill="#000000"/><text fill="#000000" font-family="sans-serif" font-size="14" lengthAdjust="spacing" textLength="124" x="43.7" y="367.7285">CreditCardPayment</text><line style="stroke:#181818;stroke-width:0.5;" x1="8" x2="176" y1="378" y2="378"/><line style="stroke:#181818;stroke-width:0.5;" x1="8" x2="176" y1="386" y2="386"/><ellipse cx="18" cy="400.3047" fill="#84BE84" rx="3" ry="3" style="stroke:#038048;stroke-width:1.0;"/><text fill="#000000" font-family="sans-serif" font-size="14" lengthAdjust="spacing" textLength="144" x="27" y="404.5332">pay(amount: int): None</text></g><!--class PayPalPayment--><g id="elem_PayPalPayment"><rect codeLine="12" fill="#F1F1F1" height="65.6094" id="PayPalPayment" rx="2.5" ry="2.5" style="stroke:#181818;stroke-width:0.5;" width="170" x="212" y="346"/><ellipse cx="244.55" cy="362" fill="#ADD1B2" rx="11" ry="11" style="stroke:#181818;stroke-width:1.0;"/><path d="M247.3156,357.875 Q247.4719,357.6563 247.6594,357.5469 Q247.8469,357.4375 248.0656,357.4375 Q248.4406,357.4375 248.675,357.7031 Q248.9094,357.9531 248.9094,358.5625 L248.9094,360.0156 Q248.9094,360.625 248.675,360.8906 Q248.4406,361.1563 248.0656,361.1563 Q247.7219,361.1563 247.5188,360.9531 Q247.3156,360.7656 247.2063,360.25 Q247.1594,359.8906 246.9719,359.7031 Q246.6438,359.3281 246.0344,359.1094 Q245.425,358.8906 244.8,358.8906 Q244.0344,358.8906 243.3938,359.2188 Q242.7688,359.5469 242.2688,360.2969 Q241.7844,361.0469 241.7844,362.0781 L241.7844,363.1719 Q241.7844,364.4063 242.675,365.2344 Q243.5656,366.0469 245.1594,366.0469 Q246.0969,366.0469 246.7531,365.7969 Q247.1438,365.6406 247.5656,365.2031 Q247.8313,364.9375 247.9719,364.8594 Q248.1281,364.7813 248.3313,364.7813 Q248.6594,364.7813 248.9094,365.0469 Q249.175,365.2969 249.175,365.6406 Q249.175,365.9844 248.8313,366.3906 Q248.3313,366.9688 247.5344,367.2969 Q246.4563,367.75 245.1594,367.75 Q243.6438,367.75 242.4406,367.125 Q241.4563,366.625 240.7688,365.5625 Q240.0813,364.4844 240.0813,363.2031 L240.0813,362.0469 Q240.0813,360.7188 240.6906,359.5781 Q241.3156,358.4219 242.4094,357.8125 Q243.5031,357.1875 244.7375,357.1875 Q245.4719,357.1875 246.1125,357.3594 Q246.7688,357.5156 247.3156,357.875 Z " fill="#000000"/><text fill="#000000" font-family="sans-serif" font-size="14" lengthAdjust="spacing" textLength="99" x="262.45" y="367.7285">PayPalPayment</text><line style="stroke:#181818;stroke-width:0.5;" x1="213" x2="381" y1="378" y2="378"/><line style="stroke:#181818;stroke-width:0.5;" x1="213" x2="381" y1="386" y2="386"/><ellipse cx="223" cy="400.3047" fill="#84BE84" rx="3" ry="3" style="stroke:#038048;stroke-width:1.0;"/><text fill="#000000" font-family="sans-serif" font-size="14" lengthAdjust="spacing" textLength="144" x="232" y="404.5332">pay(amount: int): None</text></g><!--class BitcoinPayment--><g id="elem_BitcoinPayment"><rect codeLine="17" fill="#F1F1F1" height="65.6094" id="BitcoinPayment" rx="2.5" ry="2.5" style="stroke:#181818;stroke-width:0.5;" width="170" x="417" y="346"/><ellipse cx="450.45" cy="362" fill="#ADD1B2" rx="11" ry="11" style="stroke:#181818;stroke-width:1.0;"/><path d="M453.2156,357.875 Q453.3719,357.6563 453.5594,357.5469 Q453.7469,357.4375 453.9656,357.4375 Q454.3406,357.4375 454.575,357.7031 Q454.8094,357.9531 454.8094,358.5625 L454.8094,360.0156 Q454.8094,360.625 454.575,360.8906 Q454.3406,361.1563 453.9656,361.1563 Q453.6219,361.1563 453.4188,360.9531 Q453.2156,360.7656 453.1063,360.25 Q453.0594,359.8906 452.8719,359.7031 Q452.5438,359.3281 451.9344,359.1094 Q451.325,358.8906 450.7,358.8906 Q449.9344,358.8906 449.2938,359.2188 Q448.6688,359.5469 448.1688,360.2969 Q447.6844,361.0469 447.6844,362.0781 L447.6844,363.1719 Q447.6844,364.4063 448.575,365.2344 Q449.4656,366.0469 451.0594,366.0469 Q451.9969,366.0469 452.6531,365.7969 Q453.0438,365.6406 453.4656,365.2031 Q453.7313,364.9375 453.8719,364.8594 Q454.0281,364.7813 454.2313,364.7813 Q454.5594,364.7813 454.8094,365.0469 Q455.075,365.2969 455.075,365.6406 Q455.075,365.9844 454.7313,366.3906 Q454.2313,366.9688 453.4344,367.2969 Q452.3563,367.75 451.0594,367.75 Q449.5438,367.75 448.3406,367.125 Q447.3563,366.625 446.6688,365.5625 Q445.9813,364.4844 445.9813,363.2031 L445.9813,362.0469 Q445.9813,360.7188 446.5906,359.5781 Q447.2156,358.4219 448.3094,357.8125 Q449.4031,357.1875 450.6375,357.1875 Q451.3719,357.1875 452.0125,357.3594 Q452.6688,357.5156 453.2156,357.875 Z " fill="#000000"/><text fill="#000000" font-family="sans-serif" font-size="14" lengthAdjust="spacing" textLength="97" x="468.55" y="367.7285">BitcoinPayment</text><line style="stroke:#181818;stroke-width:0.5;" x1="418" x2="586" y1="378" y2="378"/><line style="stroke:#181818;stroke-width:0.5;" x1="418" x2="586" y1="386" y2="386"/><ellipse cx="428" cy="400.3047" fill="#84BE84" rx="3" ry="3" style="stroke:#038048;stroke-width:1.0;"/><text fill="#000000" font-family="sans-serif" font-size="14" lengthAdjust="spacing" textLength="144" x="437" y="404.5332">pay(amount: int): None</text></g><!--class Item--><g id="elem_Item"><rect codeLine="25" fill="#F1F1F1" height="83.2188" id="Item" rx="2.5" ry="2.5" style="stroke:#181818;stroke-width:0.5;" width="85" x="417.5" y="203"/><ellipse cx="444.65" cy="219" fill="#ADD1B2" rx="11" ry="11" style="stroke:#181818;stroke-width:1.0;"/><path d="M447.4156,214.875 Q447.5719,214.6563 447.7594,214.5469 Q447.9469,214.4375 448.1656,214.4375 Q448.5406,214.4375 448.775,214.7031 Q449.0094,214.9531 449.0094,215.5625 L449.0094,217.0156 Q449.0094,217.625 448.775,217.8906 Q448.5406,218.1563 448.1656,218.1563 Q447.8219,218.1563 447.6188,217.9531 Q447.4156,217.7656 447.3063,217.25 Q447.2594,216.8906 447.0719,216.7031 Q446.7438,216.3281 446.1344,216.1094 Q445.525,215.8906 444.9,215.8906 Q444.1344,215.8906 443.4938,216.2188 Q442.8688,216.5469 442.3688,217.2969 Q441.8844,218.0469 441.8844,219.0781 L441.8844,220.1719 Q441.8844,221.4063 442.775,222.2344 Q443.6656,223.0469 445.2594,223.0469 Q446.1969,223.0469 446.8531,222.7969 Q447.2438,222.6406 447.6656,222.2031 Q447.9313,221.9375 448.0719,221.8594 Q448.2281,221.7813 448.4313,221.7813 Q448.7594,221.7813 449.0094,222.0469 Q449.275,222.2969 449.275,222.6406 Q449.275,222.9844 448.9313,223.3906 Q448.4313,223.9688 447.6344,224.2969 Q446.5563,224.75 445.2594,224.75 Q443.7438,224.75 442.5406,224.125 Q441.5563,223.625 440.8688,222.5625 Q440.1813,221.4844 440.1813,220.2031 L440.1813,219.0469 Q440.1813,217.7188 440.7906,216.5781 Q441.4156,215.4219 442.5094,214.8125 Q443.6031,214.1875 444.8375,214.1875 Q445.5719,214.1875 446.2125,214.3594 Q446.8688,214.5156 447.4156,214.875 Z " fill="#000000"/><text fill="#000000" font-family="sans-serif" font-size="14" lengthAdjust="spacing" textLength="26" x="461.35" y="224.7285">Item</text><line style="stroke:#181818;stroke-width:0.5;" x1="418.5" x2="501.5" y1="235" y2="235"/><ellipse cx="428.5" cy="249.3047" fill="none" rx="3" ry="3" style="stroke:#038048;stroke-width:1.0;"/><text fill="#000000" font-family="sans-serif" font-size="14" lengthAdjust="spacing" textLength="59" x="437.5" y="253.5332">name: str</text><ellipse cx="428.5" cy="266.9141" fill="none" rx="3" ry="3" style="stroke:#038048;stroke-width:1.0;"/><text fill="#000000" font-family="sans-serif" font-size="14" lengthAdjust="spacing" textLength="54" x="437.5" y="271.1426">price: int</text><line style="stroke:#181818;stroke-width:0.5;" x1="418.5" x2="501.5" y1="278.2188" y2="278.2188"/></g><!--class ShoppingCart--><g id="elem_ShoppingCart"><rect codeLine="30" fill="#F1F1F1" height="136.0469" id="ShoppingCart" rx="2.5" ry="2.5" style="stroke:#181818;stroke-width:0.5;" width="255" x="250.5" y="7"/><ellipse cx="330.25" cy="23" fill="#ADD1B2" rx="11" ry="11" style="stroke:#181818;stroke-width:1.0;"/><path d="M333.0156,18.875 Q333.1719,18.6563 333.3594,18.5469 Q333.5469,18.4375 333.7656,18.4375 Q334.1406,18.4375 334.375,18.7031 Q334.6094,18.9531 334.6094,19.5625 L334.6094,21.0156 Q334.6094,21.625 334.375,21.8906 Q334.1406,22.1563 333.7656,22.1563 Q333.4219,22.1563 333.2188,21.9531 Q333.0156,21.7656 332.9063,21.25 Q332.8594,20.8906 332.6719,20.7031 Q332.3438,20.3281 331.7344,20.1094 Q331.125,19.8906 330.5,19.8906 Q329.7344,19.8906 329.0938,20.2188 Q328.4688,20.5469 327.9688,21.2969 Q327.4844,22.0469 327.4844,23.0781 L327.4844,24.1719 Q327.4844,25.4063 328.375,26.2344 Q329.2656,27.0469 330.8594,27.0469 Q331.7969,27.0469 332.4531,26.7969 Q332.8438,26.6406 333.2656,26.2031 Q333.5313,25.9375 333.6719,25.8594 Q333.8281,25.7813 334.0313,25.7813 Q334.3594,25.7813 334.6094,26.0469 Q334.875,26.2969 334.875,26.6406 Q334.875,26.9844 334.5313,27.3906 Q334.0313,27.9688 333.2344,28.2969 Q332.1563,28.75 330.8594,28.75 Q329.3438,28.75 328.1406,28.125 Q327.1563,27.625 326.4688,26.5625 Q325.7813,25.4844 325.7813,24.2031 L325.7813,23.0469 Q325.7813,21.7188 326.3906,20.5781 Q327.0156,19.4219 328.1094,18.8125 Q329.2031,18.1875 330.4375,18.1875 Q331.1719,18.1875 331.8125,18.3594 Q332.4688,18.5156 333.0156,18.875 Z " fill="#000000"/><text fill="#000000" font-family="sans-serif" font-size="14" lengthAdjust="spacing" textLength="87" x="350.75" y="28.7285">ShoppingCart</text><line style="stroke:#181818;stroke-width:0.5;" x1="251.5" x2="504.5" y1="39" y2="39"/><ellipse cx="261.5" cy="53.3047" fill="none" rx="3" ry="3" style="stroke:#038048;stroke-width:1.0;"/><text fill="#000000" font-family="sans-serif" font-size="14" lengthAdjust="spacing" textLength="229" x="270.5" y="57.5332">payment_strategy: PaymentStrategy</text><ellipse cx="261.5" cy="70.9141" fill="none" rx="3" ry="3" style="stroke:#038048;stroke-width:1.0;"/><text fill="#000000" font-family="sans-serif" font-size="14" lengthAdjust="spacing" textLength="92" x="270.5" y="75.1426">items: list[Item]</text><line style="stroke:#181818;stroke-width:0.5;" x1="251.5" x2="504.5" y1="82.2188" y2="82.2188"/><ellipse cx="261.5" cy="96.5234" fill="#84BE84" rx="3" ry="3" style="stroke:#038048;stroke-width:1.0;"/><text fill="#000000" font-family="sans-serif" font-size="14" lengthAdjust="spacing" textLength="169" x="270.5" y="100.752">add_item(item: Item): None</text><ellipse cx="261.5" cy="114.1328" fill="#84BE84" rx="3" ry="3" style="stroke:#038048;stroke-width:1.0;"/><text fill="#000000" font-family="sans-serif" font-size="14" lengthAdjust="spacing" textLength="124" x="270.5" y="118.3613">calculate_total(): int</text><ellipse cx="261.5" cy="131.7422" fill="#84BE84" rx="3" ry="3" style="stroke:#038048;stroke-width:1.0;"/><text fill="#000000" font-family="sans-serif" font-size="14" lengthAdjust="spacing" textLength="108" x="270.5" y="135.9707">checkout(): None</text></g><!--reverse link PaymentStrategy to CreditCardPayment--><g id="link_PaymentStrategy_CreditCardPayment"><path codeLine="21" d="M242.3409,280.8269 C210.2209,301.5869 173.62,325.25 141.52,345.99 " fill="none" id="PaymentStrategy-backto-CreditCardPayment" style="stroke:#181818;stroke-width:1.0;"/><polygon fill="#181818" points="247.38,277.57,237.6501,279.096,243.1807,280.2841,241.9926,285.8148,247.38,277.57" style="stroke:#181818;stroke-width:1.0;"/></g><!--reverse link PaymentStrategy to PayPalPayment--><g id="link_PaymentStrategy_PayPalPayment"><path codeLine="22" d="M297,283.57 C297,304.25 297,325.05 297,345.76 " fill="none" id="PaymentStrategy-backto-PayPalPayment" style="stroke:#181818;stroke-width:1.0;"/><polygon fill="#181818" points="297,277.57,293,286.57,297,282.57,301,286.57,297,277.57" style="stroke:#181818;stroke-width:1.0;"/></g><!--reverse link PaymentStrategy to BitcoinPayment--><g id="link_PaymentStrategy_BitcoinPayment"><path codeLine="23" d="M351.6591,280.8269 C383.7791,301.5869 420.38,325.25 452.48,345.99 " fill="none" id="PaymentStrategy-backto-BitcoinPayment" style="stroke:#181818;stroke-width:1.0;"/><polygon fill="#181818" points="346.62,277.57,352.0074,285.8148,350.8193,280.2841,356.3499,279.096,346.62,277.57" style="stroke:#181818;stroke-width:1.0;"/></g><!--reverse link ShoppingCart to PaymentStrategy--><g id="link_ShoppingCart_PaymentStrategy"><path codeLine="38" d="M340.2993,153.9648 C328.9493,177.4548 321.93,191.94 312.59,211.26 " fill="none" id="ShoppingCart-backto-PaymentStrategy" style="stroke:#181818;stroke-width:1.0;"/><polygon fill="#181818" points="345.52,143.16,339.308,146.8222,340.2993,153.9648,346.5112,150.3026,345.52,143.16" style="stroke:#181818;stroke-width:1.0;"/></g><!--reverse link ShoppingCart to Item--><g id="link_ShoppingCart_Item"><path codeLine="39" d="M416.1546,153.9386 C426.0446,174.1486 431.32,184.92 440.1,202.84 " fill="none" id="ShoppingCart-backto-Item" style="stroke:#181818;stroke-width:1.0;"/><polygon fill="#181818" points="410.88,143.16,409.9245,150.3075,416.1546,153.9386,417.1102,146.7911,410.88,143.16" style="stroke:#181818;stroke-width:1.0;"/></g><!--SRC=[bP7DReCm383lUGhVIhVo0j5EwscNgLAFrOJS9AFHyeCISq1Ltts1W0QbsZGE76pdysTx0yUBRnhjwZq6si4RARi3T18Es5dbw4W1ITKTn2wc70Y3COBKM0UqZ6b7AdoYKAlwAuFqNV4SKqJG3PuRx0gqldN48RtRSdZtJh4ROncw3qfgIXvoP8sC3PGY1IlNshCA719mYFy9J9W3cXLCMTJc7vXNJS9hj-Jyykf-4ozbkPxjOTL2-675qcKoxAysUJcqQZvSq48DXZy3pKy-6wSdLd7inkyFcijqwXGv61tfr7Vzo66KikfJHV_ZWy-qa24lq8ZM94v5dj0KssoKSnSbldnBnMo52yEdl9c5pAgWRyc-0G00]--></g></svg>