<?xml version="1.0" encoding="us-ascii" standalone="no"?><svg xmlns="http://www.w3.org/2000/svg" xmlns:xlink="http://www.w3.org/1999/xlink" contentStyleType="text/css" height="525px" preserveAspectRatio="none" style="width:672px;height:525px;background:#FFFFFF;" version="1.1" viewBox="0 0 672 525" width="672px" zoomAndPan="magnify"><defs/><g><!--class ATM--><g id="elem_ATM"><rect codeLine="3" fill="#F1F1F1" height="206.4844" id="ATM" rx="2.5" ry="2.5" style="stroke:#181818;stroke-width:0.5;" width="181" x="218.55" y="7"/><ellipse cx="290.3" cy="23" fill="#ADD1B2" rx="11" ry="11" style="stroke:#181818;stroke-width:1.0;"/><path d="M293.0656,18.875 Q293.2219,18.6563 293.4094,18.5469 Q293.5969,18.4375 293.8156,18.4375 Q294.1906,18.4375 294.425,18.7031 Q294.6594,18.9531 294.6594,19.5625 L294.6594,21.0156 Q294.6594,21.625 294.425,21.8906 Q294.1906,22.1563 293.8156,22.1563 Q293.4719,22.1563 293.2687,21.9531 Q293.0656,21.7656 292.9562,21.25 Q292.9094,20.8906 292.7219,20.7031 Q292.3937,20.3281 291.7844,20.1094 Q291.175,19.8906 290.55,19.8906 Q289.7844,19.8906 289.1437,20.2188 Q288.5187,20.5469 288.0187,21.2969 Q287.5344,22.0469 287.5344,23.0781 L287.5344,24.1719 Q287.5344,25.4063 288.425,26.2344 Q289.3156,27.0469 290.9094,27.0469 Q291.8469,27.0469 292.5031,26.7969 Q292.8937,26.6406 293.3156,26.2031 Q293.5812,25.9375 293.7219,25.8594 Q293.8781,25.7813 294.0812,25.7813 Q294.4094,25.7813 294.6594,26.0469 Q294.925,26.2969 294.925,26.6406 Q294.925,26.9844 294.5812,27.3906 Q294.0812,27.9688 293.2844,28.2969 Q292.2062,28.75 290.9094,28.75 Q289.3937,28.75 288.1906,28.125 Q287.2062,27.625 286.5187,26.5625 Q285.8312,25.4844 285.8312,24.2031 L285.8312,23.0469 Q285.8312,21.7188 286.4406,20.5781 Q287.0656,19.4219 288.1594,18.8125 Q289.2531,18.1875 290.4875,18.1875 Q291.2219,18.1875 291.8625,18.3594 Q292.5187,18.5156 293.0656,18.875 Z " fill="#000000"/><text fill="#000000" font-family="sans-serif" font-size="14" lengthAdjust="spacing" textLength="29" x="310.8" y="28.7285">ATM</text><line style="stroke:#181818;stroke-width:0.5;" x1="219.55" x2="398.55" y1="39" y2="39"/><text fill="#000000" font-family="sans-serif" font-size="14" lengthAdjust="spacing" textLength="114" x="224.55" y="57.5332">-account: Account</text><text fill="#000000" font-family="sans-serif" font-size="14" lengthAdjust="spacing" textLength="100" x="224.55" y="75.1426">-correct_pin: str</text><text fill="#000000" font-family="sans-serif" font-size="14" lengthAdjust="spacing" textLength="114" x="224.55" y="92.752">-_state: ATMState</text><line style="stroke:#181818;stroke-width:0.5;" x1="219.55" x2="398.55" y1="99.8281" y2="99.8281"/><text fill="#000000" font-family="sans-serif" font-size="14" lengthAdjust="spacing" textLength="89" x="224.55" y="118.3613">+insert_card()</text><text fill="#000000" font-family="sans-serif" font-size="14" lengthAdjust="spacing" textLength="84" x="224.55" y="135.9707">+eject_card()</text><text fill="#000000" font-family="sans-serif" font-size="14" lengthAdjust="spacing" textLength="97" x="224.55" y="153.5801">+enter_pin(pin)</text><text fill="#000000" font-family="sans-serif" font-size="14" lengthAdjust="spacing" textLength="169" x="224.55" y="171.1895">+withdraw_money(amount)</text><text fill="#000000" font-family="sans-serif" font-size="14" lengthAdjust="spacing" textLength="140" x="224.55" y="188.7988">+enter_maintenance()</text><text fill="#000000" font-family="sans-serif" font-size="14" lengthAdjust="spacing" textLength="128" x="224.55" y="206.4082">+exit_maintenance()</text></g><!--class ATMState--><g id="elem_ATMState"><rect codeLine="15" fill="#F1F1F1" height="118.4375" id="ATMState" rx="2.5" ry="2.5" style="stroke:#181818;stroke-width:0.5;" width="212" x="283.05" y="291"/><ellipse cx="353.3" cy="307" fill="#B4A7E5" rx="11" ry="11" style="stroke:#181818;stroke-width:1.0;"/><path d="M354.2531,303.6406 L354.2531,310.2969 L355.9719,310.2969 Q356.5813,310.2969 356.8469,310.5313 Q357.1125,310.7656 357.1125,311.1563 Q357.1125,311.5313 356.8469,311.7656 Q356.5813,312 355.9719,312 L350.8313,312 Q350.2219,312 349.9563,311.7656 Q349.6906,311.5313 349.6906,311.1406 Q349.6906,310.7656 349.9563,310.5313 Q350.2219,310.2969 350.8313,310.2969 L352.55,310.2969 L352.55,303.6406 L350.8313,303.6406 Q350.2219,303.6406 349.9563,303.4063 Q349.6906,303.1719 349.6906,302.7813 Q349.6906,302.4063 349.9563,302.1719 Q350.2219,301.9375 350.8313,301.9375 L355.9719,301.9375 Q356.5813,301.9375 356.8469,302.1719 Q357.1125,302.4063 357.1125,302.7813 Q357.1125,303.1719 356.8469,303.4063 Q356.5813,303.6406 355.9719,303.6406 L354.2531,303.6406 Z " fill="#000000"/><text fill="#000000" font-family="sans-serif" font-size="14" font-style="italic" lengthAdjust="spacing" textLength="63" x="373.8" y="312.7285">ATMState</text><line style="stroke:#181818;stroke-width:0.5;" x1="284.05" x2="494.05" y1="323" y2="323"/><line style="stroke:#181818;stroke-width:0.5;" x1="284.05" x2="494.05" y1="331" y2="331"/><text fill="#000000" font-family="sans-serif" font-size="14" lengthAdjust="spacing" textLength="112" x="289.05" y="349.5332">+insert_card(atm)</text><text fill="#000000" font-family="sans-serif" font-size="14" lengthAdjust="spacing" textLength="107" x="289.05" y="367.1426">+eject_card(atm)</text><text fill="#000000" font-family="sans-serif" font-size="14" lengthAdjust="spacing" textLength="128" x="289.05" y="384.752">+enter_pin(atm, pin)</text><text fill="#000000" font-family="sans-serif" font-size="14" lengthAdjust="spacing" textLength="200" x="289.05" y="402.3613">+withdraw_money(atm, amount)</text></g><!--class NoCard--><g id="elem_NoCard"><rect codeLine="22" fill="#F1F1F1" height="48" id="NoCard" rx="2.5" ry="2.5" style="stroke:#181818;stroke-width:0.5;" width="80" x="61.05" y="470"/><ellipse cx="76.05" cy="486" fill="#ADD1B2" rx="11" ry="11" style="stroke:#181818;stroke-width:1.0;"/><path d="M78.8156,481.875 Q78.9719,481.6563 79.1594,481.5469 Q79.3469,481.4375 79.5656,481.4375 Q79.9406,481.4375 80.175,481.7031 Q80.4094,481.9531 80.4094,482.5625 L80.4094,484.0156 Q80.4094,484.625 80.175,484.8906 Q79.9406,485.1563 79.5656,485.1563 Q79.2219,485.1563 79.0188,484.9531 Q78.8156,484.7656 78.7063,484.25 Q78.6594,483.8906 78.4719,483.7031 Q78.1438,483.3281 77.5344,483.1094 Q76.925,482.8906 76.3,482.8906 Q75.5344,482.8906 74.8938,483.2188 Q74.2688,483.5469 73.7688,484.2969 Q73.2844,485.0469 73.2844,486.0781 L73.2844,487.1719 Q73.2844,488.4063 74.175,489.2344 Q75.0656,490.0469 76.6594,490.0469 Q77.5969,490.0469 78.2531,489.7969 Q78.6438,489.6406 79.0656,489.2031 Q79.3313,488.9375 79.4719,488.8594 Q79.6281,488.7813 79.8313,488.7813 Q80.1594,488.7813 80.4094,489.0469 Q80.675,489.2969 80.675,489.6406 Q80.675,489.9844 80.3313,490.3906 Q79.8313,490.9688 79.0344,491.2969 Q77.9563,491.75 76.6594,491.75 Q75.1438,491.75 73.9406,491.125 Q72.9563,490.625 72.2688,489.5625 Q71.5813,488.4844 71.5813,487.2031 L71.5813,486.0469 Q71.5813,484.7188 72.1906,483.5781 Q72.8156,482.4219 73.9094,481.8125 Q75.0031,481.1875 76.2375,481.1875 Q76.9719,481.1875 77.6125,481.3594 Q78.2688,481.5156 78.8156,481.875 Z " fill="#000000"/><text fill="#000000" font-family="sans-serif" font-size="14" lengthAdjust="spacing" textLength="48" x="90.05" y="491.7285">NoCard</text><line style="stroke:#181818;stroke-width:0.5;" x1="62.05" x2="140.05" y1="502" y2="502"/><line style="stroke:#181818;stroke-width:0.5;" x1="62.05" x2="140.05" y1="510" y2="510"/></g><!--class HasCard--><g id="elem_HasCard"><rect codeLine="23" fill="#F1F1F1" height="48" id="HasCard" rx="2.5" ry="2.5" style="stroke:#181818;stroke-width:0.5;" width="87" x="225.55" y="470"/><ellipse cx="240.55" cy="486" fill="#ADD1B2" rx="11" ry="11" style="stroke:#181818;stroke-width:1.0;"/><path d="M243.3156,481.875 Q243.4719,481.6563 243.6594,481.5469 Q243.8469,481.4375 244.0656,481.4375 Q244.4406,481.4375 244.675,481.7031 Q244.9094,481.9531 244.9094,482.5625 L244.9094,484.0156 Q244.9094,484.625 244.675,484.8906 Q244.4406,485.1563 244.0656,485.1563 Q243.7219,485.1563 243.5187,484.9531 Q243.3156,484.7656 243.2062,484.25 Q243.1594,483.8906 242.9719,483.7031 Q242.6437,483.3281 242.0344,483.1094 Q241.425,482.8906 240.8,482.8906 Q240.0344,482.8906 239.3937,483.2188 Q238.7687,483.5469 238.2687,484.2969 Q237.7844,485.0469 237.7844,486.0781 L237.7844,487.1719 Q237.7844,488.4063 238.675,489.2344 Q239.5656,490.0469 241.1594,490.0469 Q242.0969,490.0469 242.7531,489.7969 Q243.1437,489.6406 243.5656,489.2031 Q243.8312,488.9375 243.9719,488.8594 Q244.1281,488.7813 244.3312,488.7813 Q244.6594,488.7813 244.9094,489.0469 Q245.175,489.2969 245.175,489.6406 Q245.175,489.9844 244.8312,490.3906 Q244.3312,490.9688 243.5344,491.2969 Q242.4562,491.75 241.1594,491.75 Q239.6437,491.75 238.4406,491.125 Q237.4562,490.625 236.7687,489.5625 Q236.0812,488.4844 236.0812,487.2031 L236.0812,486.0469 Q236.0812,484.7188 236.6906,483.5781 Q237.3156,482.4219 238.4094,481.8125 Q239.5031,481.1875 240.7375,481.1875 Q241.4719,481.1875 242.1125,481.3594 Q242.7687,481.5156 243.3156,481.875 Z " fill="#000000"/><text fill="#000000" font-family="sans-serif" font-size="14" lengthAdjust="spacing" textLength="55" x="254.55" y="491.7285">HasCard</text><line style="stroke:#181818;stroke-width:0.5;" x1="226.55" x2="311.55" y1="502" y2="502"/><line style="stroke:#181818;stroke-width:0.5;" x1="226.55" x2="311.55" y1="510" y2="510"/></g><!--class Authenticated--><g id="elem_Authenticated"><rect codeLine="24" fill="#F1F1F1" height="48" id="Authenticated" rx="2.5" ry="2.5" style="stroke:#181818;stroke-width:0.5;" width="119" x="387.55" y="470"/><ellipse cx="402.55" cy="486" fill="#ADD1B2" rx="11" ry="11" style="stroke:#181818;stroke-width:1.0;"/><path d="M405.3156,481.875 Q405.4719,481.6563 405.6594,481.5469 Q405.8469,481.4375 406.0656,481.4375 Q406.4406,481.4375 406.675,481.7031 Q406.9094,481.9531 406.9094,482.5625 L406.9094,484.0156 Q406.9094,484.625 406.675,484.8906 Q406.4406,485.1563 406.0656,485.1563 Q405.7219,485.1563 405.5188,484.9531 Q405.3156,484.7656 405.2063,484.25 Q405.1594,483.8906 404.9719,483.7031 Q404.6438,483.3281 404.0344,483.1094 Q403.425,482.8906 402.8,482.8906 Q402.0344,482.8906 401.3938,483.2188 Q400.7688,483.5469 400.2688,484.2969 Q399.7844,485.0469 399.7844,486.0781 L399.7844,487.1719 Q399.7844,488.4063 400.675,489.2344 Q401.5656,490.0469 403.1594,490.0469 Q404.0969,490.0469 404.7531,489.7969 Q405.1438,489.6406 405.5656,489.2031 Q405.8313,488.9375 405.9719,488.8594 Q406.1281,488.7813 406.3313,488.7813 Q406.6594,488.7813 406.9094,489.0469 Q407.175,489.2969 407.175,489.6406 Q407.175,489.9844 406.8313,490.3906 Q406.3313,490.9688 405.5344,491.2969 Q404.4563,491.75 403.1594,491.75 Q401.6438,491.75 400.4406,491.125 Q399.4563,490.625 398.7688,489.5625 Q398.0813,488.4844 398.0813,487.2031 L398.0813,486.0469 Q398.0813,484.7188 398.6906,483.5781 Q399.3156,482.4219 400.4094,481.8125 Q401.5031,481.1875 402.7375,481.1875 Q403.4719,481.1875 404.1125,481.3594 Q404.7688,481.5156 405.3156,481.875 Z " fill="#000000"/><text fill="#000000" font-family="sans-serif" font-size="14" lengthAdjust="spacing" textLength="87" x="416.55" y="491.7285">Authenticated</text><line style="stroke:#181818;stroke-width:0.5;" x1="388.55" x2="505.55" y1="502" y2="502"/><line style="stroke:#181818;stroke-width:0.5;" x1="388.55" x2="505.55" y1="510" y2="510"/></g><!--class Maintenance--><g id="elem_Maintenance"><rect codeLine="25" fill="#F1F1F1" height="48" id="Maintenance" rx="2.5" ry="2.5" style="stroke:#181818;stroke-width:0.5;" width="113" x="552.55" y="470"/><ellipse cx="567.55" cy="486" fill="#ADD1B2" rx="11" ry="11" style="stroke:#181818;stroke-width:1.0;"/><path d="M570.3156,481.875 Q570.4719,481.6563 570.6594,481.5469 Q570.8469,481.4375 571.0656,481.4375 Q571.4406,481.4375 571.675,481.7031 Q571.9094,481.9531 571.9094,482.5625 L571.9094,484.0156 Q571.9094,484.625 571.675,484.8906 Q571.4406,485.1563 571.0656,485.1563 Q570.7219,485.1563 570.5188,484.9531 Q570.3156,484.7656 570.2063,484.25 Q570.1594,483.8906 569.9719,483.7031 Q569.6438,483.3281 569.0344,483.1094 Q568.425,482.8906 567.8,482.8906 Q567.0344,482.8906 566.3938,483.2188 Q565.7688,483.5469 565.2688,484.2969 Q564.7844,485.0469 564.7844,486.0781 L564.7844,487.1719 Q564.7844,488.4063 565.675,489.2344 Q566.5656,490.0469 568.1594,490.0469 Q569.0969,490.0469 569.7531,489.7969 Q570.1438,489.6406 570.5656,489.2031 Q570.8313,488.9375 570.9719,488.8594 Q571.1281,488.7813 571.3313,488.7813 Q571.6594,488.7813 571.9094,489.0469 Q572.175,489.2969 572.175,489.6406 Q572.175,489.9844 571.8313,490.3906 Q571.3313,490.9688 570.5344,491.2969 Q569.4563,491.75 568.1594,491.75 Q566.6438,491.75 565.4406,491.125 Q564.4563,490.625 563.7688,489.5625 Q563.0813,488.4844 563.0813,487.2031 L563.0813,486.0469 Q563.0813,484.7188 563.6906,483.5781 Q564.3156,482.4219 565.4094,481.8125 Q566.5031,481.1875 567.7375,481.1875 Q568.4719,481.1875 569.1125,481.3594 Q569.7688,481.5156 570.3156,481.875 Z " fill="#000000"/><text fill="#000000" font-family="sans-serif" font-size="14" lengthAdjust="spacing" textLength="81" x="581.55" y="491.7285">Maintenance</text><line style="stroke:#181818;stroke-width:0.5;" x1="553.55" x2="664.55" y1="502" y2="502"/><line style="stroke:#181818;stroke-width:0.5;" x1="553.55" x2="664.55" y1="510" y2="510"/></g><!--class Account--><g id="elem_Account"><rect codeLine="36" fill="#F1F1F1" height="48" id="Account" rx="2.5" ry="2.5" style="stroke:#181818;stroke-width:0.5;" width="83" x="93.55" y="326"/><ellipse cx="108.55" cy="342" fill="#ADD1B2" rx="11" ry="11" style="stroke:#181818;stroke-width:1.0;"/><path d="M111.3156,337.875 Q111.4719,337.6563 111.6594,337.5469 Q111.8469,337.4375 112.0656,337.4375 Q112.4406,337.4375 112.675,337.7031 Q112.9094,337.9531 112.9094,338.5625 L112.9094,340.0156 Q112.9094,340.625 112.675,340.8906 Q112.4406,341.1563 112.0656,341.1563 Q111.7219,341.1563 111.5188,340.9531 Q111.3156,340.7656 111.2063,340.25 Q111.1594,339.8906 110.9719,339.7031 Q110.6438,339.3281 110.0344,339.1094 Q109.425,338.8906 108.8,338.8906 Q108.0344,338.8906 107.3938,339.2188 Q106.7688,339.5469 106.2688,340.2969 Q105.7844,341.0469 105.7844,342.0781 L105.7844,343.1719 Q105.7844,344.4063 106.675,345.2344 Q107.5656,346.0469 109.1594,346.0469 Q110.0969,346.0469 110.7531,345.7969 Q111.1438,345.6406 111.5656,345.2031 Q111.8313,344.9375 111.9719,344.8594 Q112.1281,344.7813 112.3313,344.7813 Q112.6594,344.7813 112.9094,345.0469 Q113.175,345.2969 113.175,345.6406 Q113.175,345.9844 112.8313,346.3906 Q112.3313,346.9688 111.5344,347.2969 Q110.4563,347.75 109.1594,347.75 Q107.6438,347.75 106.4406,347.125 Q105.4563,346.625 104.7688,345.5625 Q104.0813,344.4844 104.0813,343.2031 L104.0813,342.0469 Q104.0813,340.7188 104.6906,339.5781 Q105.3156,338.4219 106.4094,337.8125 Q107.5031,337.1875 108.7375,337.1875 Q109.4719,337.1875 110.1125,337.3594 Q110.7688,337.5156 111.3156,337.875 Z " fill="#000000"/><text fill="#000000" font-family="sans-serif" font-size="14" lengthAdjust="spacing" textLength="51" x="122.55" y="347.7285">Account</text><line style="stroke:#181818;stroke-width:0.5;" x1="94.55" x2="175.55" y1="358" y2="358"/><line style="stroke:#181818;stroke-width:0.5;" x1="94.55" x2="175.55" y1="366" y2="366"/></g><!--reverse link ATMState to NoCard--><g id="link_ATMState_NoCard"><path codeLine="27" d="M266.8961,411.2308 C217.4961,435.5908 177.82,455.15 141.17,473.22 " fill="none" id="ATMState-backto-NoCard" style="stroke:#181818;stroke-width:1.0;stroke-dasharray:7.0,7.0;"/><polygon fill="none" points="283.04,403.27,264.2425,405.8495,269.5497,416.6121,283.04,403.27" style="stroke:#181818;stroke-width:1.0;"/></g><!--reverse link ATMState to HasCard--><g id="link_ATMState_HasCard"><path codeLine="28" d="M338.907,423.6575 C331.097,434.1875 333.44,430.4 325.05,440 C315.98,450.38 305.14,460.99 295.43,469.96 " fill="none" id="ATMState-backto-HasCard" style="stroke:#181818;stroke-width:1.0;stroke-dasharray:7.0,7.0;"/><polygon fill="none" points="349.63,409.2,334.0879,420.0831,343.7262,427.2318,349.63,409.2" style="stroke:#181818;stroke-width:1.0;"/></g><!--reverse link ATMState to Authenticated--><g id="link_ATMState_Authenticated"><path codeLine="29" d="M419.619,425.8325 C428.319,447.1225 430.85,453.34 437.58,469.82 " fill="none" id="ATMState-backto-Authenticated" style="stroke:#181818;stroke-width:1.0;stroke-dasharray:7.0,7.0;"/><polygon fill="none" points="412.81,409.17,414.0648,428.1021,425.1731,423.5628,412.81,409.17" style="stroke:#181818;stroke-width:1.0;"/></g><!--reverse link ATMState to Maintenance--><g id="link_ATMState_Maintenance"><path codeLine="30" d="M494.2935,418.9311 C527.4035,440.3011 547.87,453.51 573.41,469.99 " fill="none" id="ATMState-backto-Maintenance" style="stroke:#181818;stroke-width:1.0;stroke-dasharray:7.0,7.0;"/><polygon fill="none" points="479.17,409.17,491.0398,423.9723,497.5472,413.8899,479.17,409.17" style="stroke:#181818;stroke-width:1.0;"/></g><!--link ATM to ATMState--><g id="link_ATM_ATMState"><path codeLine="31" d="M343.44,213.31 C352.34,239.77 359.6987,261.6625 367.5387,284.9925 " fill="none" id="ATM-to-ATMState" style="stroke:#181818;stroke-width:1.0;"/><polygon fill="#181818" points="369.45,290.68,370.3747,280.8747,367.8573,285.9405,362.7915,283.423,369.45,290.68" style="stroke:#181818;stroke-width:1.0;"/><text fill="#000000" font-family="sans-serif" font-size="13" lengthAdjust="spacing" textLength="29" x="359.05" y="257.4951">state</text></g><!--link NoCard to ATM--><g id="link_NoCard_ATM"><path codeLine="32" d="M74.05,469.9 C58.2,454.49 39.65,432.74 31.05,409 C13.2,359.69 6,337.07 31.05,291 C70.54,218.39 147.8288,172.942 212.8388,144.962 " fill="none" id="NoCard-to-ATM" style="stroke:#181818;stroke-width:1.0;"/><polygon fill="#181818" points="218.35,142.59,208.5018,142.4739,213.7573,144.5667,211.6645,149.8222,218.35,142.59" style="stroke:#181818;stroke-width:1.0;"/><text fill="#000000" font-family="sans-serif" font-size="13" lengthAdjust="spacing" textLength="43" x="32.05" y="355.4951">context</text></g><!--link HasCard to ATM--><g id="link_HasCard_ATM"><path codeLine="33" d="M267.65,469.84 C266.7,452.97 265.54,429.58 265.05,409 C263.8,356.57 258.78,343.07 265.05,291 C268.13,265.45 272.1852,244.1256 278.2252,218.8556 " fill="none" id="HasCard-to-ATM" style="stroke:#181818;stroke-width:1.0;"/><polygon fill="#181818" points="279.62,213.02,273.6374,220.8436,278.4576,217.883,281.4182,222.7033,279.62,213.02" style="stroke:#181818;stroke-width:1.0;"/></g><!--link Authenticated to ATM--><g id="link_Authenticated_ATM"><path codeLine="34" d="M472.2,469.95 C487.23,454.4 504.93,432.49 513.05,409 C530.19,359.44 534.62,338.8 513.05,291 C489.54,238.91 447.5462,199.36 404.6662,168.43 " fill="none" id="Authenticated-to-ATM" style="stroke:#181818;stroke-width:1.0;"/><polygon fill="#181818" points="399.8,164.92,404.7592,173.4292,403.8551,167.845,409.4393,166.941,399.8,164.92" style="stroke:#181818;stroke-width:1.0;"/></g><!--link Maintenance to ATM--><g id="link_Maintenance_ATM"><path codeLine="35" d="M606.79,469.98 C600.83,421.49 580.43,307.96 516.05,243 C482.37,209.02 443.6186,182.473 404.8886,159.983 " fill="none" id="Maintenance-to-ATM" style="stroke:#181818;stroke-width:1.0;"/><polygon fill="#181818" points="399.7,156.97,405.4743,164.9486,404.0239,159.4808,409.4916,158.0304,399.7,156.97" style="stroke:#181818;stroke-width:1.0;"/></g><!--link ATM to Account--><g id="link_ATM_Account"><path codeLine="37" d="M226.12,213.32 C218.54,223.25 211.07,233.26 204.05,243 C184.02,270.79 165.9499,298.9757 152.4099,320.7357 " fill="none" id="ATM-to-Account" style="stroke:#181818;stroke-width:1.0;"/><polygon fill="#181818" points="149.24,325.83,157.391,320.3018,151.8816,321.5848,150.5986,316.0753,149.24,325.83" style="stroke:#181818;stroke-width:1.0;"/></g><!--SRC=[TPBBJiCm44Nt_WelWo0LwmWXHMnWKJPb7mtke1gmNTaJjJpwHNm2ktuPTlne329I5C-vyPthXtkHUWiM51Ulu5nFPENZI7WdZ5x9T-INZ4qAxn-M_8Dn_xGWX1arTRoFWqY5iHO53LkfE-x8HZeu0i8kJ5-5qKJFfNPeQH1WryrPHFWS9bT44zfWr_WtiPsapTh2Rb16uri3AlIl_bSW_LU35bYCzf9-yGDZeRHF8B1aI-khqW6flm5di6Jqx8B_7pIeEUqXx-czkV5sgRW5DwlwaJRUN0gVAxFbQGcCbT1Nduj5TgfXTgnfxLnhymxXmDls-hGx7Jz-JQTv_6QnNzOdoTyOmZrvCVNDAgiw5ZhhLLXQUxfM9K6iVm00]--></g></svg>