<?xml version="1.0" encoding="us-ascii" standalone="no"?><svg xmlns="http://www.w3.org/2000/svg" xmlns:xlink="http://www.w3.org/1999/xlink" contentStyleType="text/css" height="543px" preserveAspectRatio="none" style="width:674px;height:543px;background:#FFFFFF;" version="1.1" viewBox="0 0 674 543" width="674px" zoomAndPan="magnify"><defs/><g><ellipse cx="312.48" cy="16" fill="#222222" rx="10" ry="10" style="stroke:#222222;stroke-width:1.0;"/><g id="NoCardState"><rect fill="#F1F1F1" height="50" rx="12.5" ry="12.5" style="stroke:#181818;stroke-width:0.5;" width="101" x="261.98" y="87"/><line style="stroke:#181818;stroke-width:0.5;" x1="261.98" x2="362.98" y1="114.6094" y2="114.6094"/><text fill="#000000" font-family="sans-serif" font-size="14" lengthAdjust="spacing" textLength="81" x="271.98" y="106.5332">NoCardState</text></g><g id="HasCardState"><rect fill="#F1F1F1" height="50" rx="12.5" ry="12.5" style="stroke:#181818;stroke-width:0.5;" width="108" x="83.48" y="215"/><line style="stroke:#181818;stroke-width:0.5;" x1="83.48" x2="191.48" y1="242.6094" y2="242.6094"/><text fill="#000000" font-family="sans-serif" font-size="14" lengthAdjust="spacing" textLength="88" x="93.48" y="234.5332">HasCardState</text></g><g id="AuthenticatedState"><rect fill="#F1F1F1" height="50" rx="12.5" ry="12.5" style="stroke:#181818;stroke-width:0.5;" width="140" x="269.48" y="343"/><line style="stroke:#181818;stroke-width:0.5;" x1="269.48" x2="409.48" y1="370.6094" y2="370.6094"/><text fill="#000000" font-family="sans-serif" font-size="14" lengthAdjust="spacing" textLength="120" x="279.48" y="362.5332">AuthenticatedState</text></g><g id="MaintenanceState"><rect fill="#F1F1F1" height="50" rx="12.5" ry="12.5" style="stroke:#181818;stroke-width:0.5;" width="134" x="330.48" y="487"/><line style="stroke:#181818;stroke-width:0.5;" x1="330.48" x2="464.48" y1="514.6094" y2="514.6094"/><text fill="#000000" font-family="sans-serif" font-size="14" lengthAdjust="spacing" textLength="114" x="340.48" y="506.5332">MaintenanceState</text></g><!--link *start* to NoCardState--><g id="link_*start*_NoCardState"><path d="M312.48,26.01 C312.48,39.89 312.48,60.97 312.48,80.84 " fill="none" id="*start*-to-NoCardState" style="stroke:#181818;stroke-width:1.0;"/><polygon fill="#181818" points="312.48,86.84,316.48,77.84,312.48,81.84,308.48,77.84,312.48,86.84" style="stroke:#181818;stroke-width:1.0;"/></g><!--link NoCardState to HasCardState--><g id="link_NoCardState_HasCardState"><path d="M261.83,115.1 C188.07,119.34 56.67,131.76 27.48,167 C6,192.93 40.0853,211.0209 77.6753,223.2709 " fill="none" id="NoCardState-to-HasCardState" style="stroke:#181818;stroke-width:1.0;"/><polygon fill="#181818" points="83.38,225.13,76.0623,218.5382,78.6261,223.5808,73.5835,226.1445,83.38,225.13" style="stroke:#181818;stroke-width:1.0;"/><text fill="#000000" font-family="sans-serif" font-size="13" lengthAdjust="spacing" textLength="65" x="28.48" y="181.4951">&#12459;&#12540;&#12489;&#25407;&#20837;</text></g><!--link HasCardState to NoCardState--><g id="link_HasCardState_NoCardState"><path d="M129.28,214.7 C125.78,199.56 124.49,180.47 134.48,167 C163.53,127.83 214.256,116.5184 255.886,113.4684 " fill="none" id="HasCardState-to-NoCardState" style="stroke:#181818;stroke-width:1.0;"/><polygon fill="#181818" points="261.87,113.03,252.6018,109.6983,256.8834,113.3953,253.1863,117.6769,261.87,113.03" style="stroke:#181818;stroke-width:1.0;"/><text fill="#000000" font-family="sans-serif" font-size="13" lengthAdjust="spacing" textLength="91" x="135.48" y="181.4951">&#12459;&#12540;&#12489;&#21462;&#12426;&#20986;&#12375;</text></g><!--link HasCardState to NoCardState--><g id="link_HasCardState_NoCardState"><path d="M183.6,215 C199.23,206.22 216.51,195.78 231.48,185 C251.63,170.49 268.1838,155.926 283.7038,141.226 " fill="none" id="HasCardState-to-NoCardState-1" style="stroke:#181818;stroke-width:1.0;"/><polygon fill="#181818" points="288.06,137.1,278.7751,140.3849,284.4299,140.5383,284.2764,146.1931,288.06,137.1" style="stroke:#181818;stroke-width:1.0;"/><text fill="#000000" font-family="sans-serif" font-size="13" lengthAdjust="spacing" textLength="60" x="253.48" y="181.4951">PIN&#12456;&#12521;&#12540;</text></g><!--link HasCardState to AuthenticatedState--><g id="link_HasCardState_AuthenticatedState"><path d="M170.62,265.23 C190.77,279.63 217.21,297.97 241.48,313 C258.16,323.33 271.6579,331.0556 288.2779,340.0856 " fill="none" id="HasCardState-to-AuthenticatedState" style="stroke:#181818;stroke-width:1.0;"/><polygon fill="#181818" points="293.55,342.95,287.5515,335.1386,289.1566,340.563,283.7322,342.1681,293.55,342.95" style="stroke:#181818;stroke-width:1.0;"/><text fill="#000000" font-family="sans-serif" font-size="13" lengthAdjust="spacing" textLength="86" x="242.48" y="309.4951">&#27491;&#12375;&#12356;PIN&#20837;&#21147;</text></g><!--link AuthenticatedState to NoCardState--><g id="link_AuthenticatedState_NoCardState"><path d="M338.21,342.9 C336.04,305.24 331.03,230.2 322.48,167 C321.15,157.17 320.3828,152.3121 318.5928,143.0021 " fill="none" id="AuthenticatedState-to-NoCardState" style="stroke:#181818;stroke-width:1.0;"/><polygon fill="#181818" points="317.46,137.11,315.2312,146.7034,318.404,142.0201,323.0873,145.1929,317.46,137.11" style="stroke:#181818;stroke-width:1.0;"/><text fill="#000000" font-family="sans-serif" font-size="13" lengthAdjust="spacing" textLength="52" x="333.48" y="245.4951">&#25805;&#20316;&#32066;&#20102;</text></g><!--link NoCardState to MaintenanceState--><g id="link_NoCardState_MaintenanceState"><path d="M337.03,137.29 C355.37,156.74 379.71,185.55 394.48,215 C443.55,312.87 476.6,353.65 440.48,457 C436.68,467.86 433.5499,473.5764 426.2899,482.2164 " fill="none" id="NoCardState-to-MaintenanceState" style="stroke:#181818;stroke-width:1.0;"/><polygon fill="#181818" points="422.43,486.81,431.2823,482.4929,425.6466,482.982,425.1575,477.3463,422.43,486.81" style="stroke:#181818;stroke-width:1.0;"/><text fill="#000000" font-family="sans-serif" font-size="13" lengthAdjust="spacing" textLength="104" x="442.48" y="309.4951">&#12513;&#12531;&#12486;&#12490;&#12531;&#12473;&#38283;&#22987;</text></g><!--link MaintenanceState to NoCardState--><g id="link_MaintenanceState_NoCardState"><path d="M438.16,486.71 C496.27,448.66 592.21,371.42 555.48,295 C516.66,214.24 427.6968,162.9746 368.6368,135.9746 " fill="none" id="MaintenanceState-to-NoCardState" style="stroke:#181818;stroke-width:1.0;"/><polygon fill="#181818" points="363.18,133.48,369.7021,140.8598,367.7273,135.5589,373.0283,133.5841,363.18,133.48" style="stroke:#181818;stroke-width:1.0;"/><text fill="#000000" font-family="sans-serif" font-size="13" lengthAdjust="spacing" textLength="104" x="562.48" y="309.4951">&#12513;&#12531;&#12486;&#12490;&#12531;&#12473;&#32066;&#20102;</text></g><!--link HasCardState to MaintenanceState--><g id="link_HasCardState_MaintenanceState"><path d="M131.87,265.24 C125.89,297.4 120.47,354.59 146.48,393 C188.26,454.7 265.4173,483.5129 324.5273,497.7729 " fill="none" id="HasCardState-to-MaintenanceState" style="stroke:#181818;stroke-width:1.0;"/><polygon fill="#181818" points="330.36,499.18,322.5491,493.1809,325.4994,498.0074,320.6729,500.9578,330.36,499.18" style="stroke:#181818;stroke-width:1.0;"/><text fill="#000000" font-family="sans-serif" font-size="13" lengthAdjust="spacing" textLength="104" x="147.48" y="365.4951">&#12459;&#12540;&#12489;&#12434;&#21462;&#12426;&#20986;&#12375;</text><text fill="#000000" font-family="sans-serif" font-size="13" lengthAdjust="spacing" textLength="104" x="147.48" y="381.8467">&#12513;&#12531;&#12486;&#12490;&#12531;&#12473;&#38283;&#22987;</text></g><!--link AuthenticatedState to MaintenanceState--><g id="link_AuthenticatedState_MaintenanceState"><path d="M330.34,393.34 C324.98,411.7 320.94,437.05 330.48,457 C336.09,468.72 340.9258,474.9831 351.0758,483.0631 " fill="none" id="AuthenticatedState-to-MaintenanceState" style="stroke:#181818;stroke-width:1.0;"/><polygon fill="#181818" points="355.77,486.8,351.2199,478.0652,351.8581,483.6859,346.2374,484.3242,355.77,486.8" style="stroke:#181818;stroke-width:1.0;"/><text fill="#000000" font-family="sans-serif" font-size="13" lengthAdjust="spacing" textLength="104" x="331.48" y="437.4951">&#12459;&#12540;&#12489;&#12434;&#21462;&#12426;&#20986;&#12375;</text><text fill="#000000" font-family="sans-serif" font-size="13" lengthAdjust="spacing" textLength="104" x="331.48" y="453.8467">&#12513;&#12531;&#12486;&#12490;&#12531;&#12473;&#38283;&#22987;</text></g><!--SRC=[KrSeBaaiILNmotTEB4e91hEhkTGL51I0H2qNLxHMh8AkhXsoF1Uc3gYGHs8nkYh7qfACrBoIp6GW1qN2Dp4phoGrBp4lEHKYp8Li8CXAPDCKh1GUDwr-tBpdSNFdivxzJrkNSg58epaHMVdJ_ccFcxgUjkzwt3WTKnEc-u1wdwrT35JykB4bmDCFQDNJhjc4R0CgVDoqud7pIg2TN5ZCnDJnR7BlaxrpdczjUhAh3SFhw843ya_pmiVDcnytjprkxW8ncdQ-dDRzT7atfikmQOO5nkEcISZX4PE7qrWSdg2EuHYcO8a_3BtGi080]--></g></svg>